<svg width="1120" height="186" viewBox="0 0 1120 186" fill="none" xmlns="http://www.w3.org/2000/svg">
<path d="M76.4905 131.346C76.4905 126.94 76.0195 122.734 75.0777 118.728C74.1359 114.722 72.6558 111.184 70.6376 108.113C68.6194 105.042 66.063 102.638 62.9684 100.903C60.0083 99.0333 56.3755 98.0986 52.07 98.0986C47.899 98.0986 44.2662 99.0333 41.1716 100.903C38.077 102.638 35.5206 105.042 33.5024 108.113C31.4842 111.184 30.0042 114.722 29.0623 118.728C28.1205 122.734 27.6496 126.94 27.6496 131.346C27.6496 135.619 28.1205 139.758 29.0623 143.764C30.0042 147.77 31.4842 151.308 33.5024 154.379C35.5206 157.45 38.077 159.92 41.1716 161.79C44.2662 163.525 47.899 164.393 52.07 164.393C56.3755 164.393 60.0083 163.525 62.9684 161.79C66.063 159.92 68.6194 157.45 70.6376 154.379C72.6558 151.308 74.1359 147.77 75.0777 143.764C76.0195 139.758 76.4905 135.619 76.4905 131.346ZM0 40.0156H28.6587V92.09H29.0623C32.5606 86.7491 37.2698 82.8769 43.1899 80.4734C49.2445 77.9365 55.501 76.668 61.9593 76.668C67.2066 76.668 72.3867 77.7362 77.4996 79.8726C82.6124 82.009 87.187 85.2803 91.2234 89.6866C95.3944 94.0929 98.7581 99.7677 101.315 106.711C103.871 113.521 105.149 121.666 105.149 131.146C105.149 140.626 103.871 148.838 101.315 155.781C98.7581 162.591 95.3944 168.199 91.2234 172.605C87.187 177.011 82.6124 180.283 77.4996 182.419C72.3867 184.556 67.2066 185.624 61.9593 185.624C54.2901 185.624 47.4281 184.422 41.3735 182.019C35.3188 179.615 30.7442 175.543 27.6496 169.801H27.2459V183.02H0V40.0156Z" fill="#16191D"/>
<path d="M193.613 120.13C192.268 112.92 189.846 107.445 186.348 103.707C182.984 99.968 177.804 98.0986 170.807 98.0986C166.233 98.0986 162.398 98.8998 159.304 100.502C156.344 101.971 153.922 103.84 152.038 106.11C150.289 108.38 149.011 110.783 148.203 113.32C147.531 115.857 147.127 118.127 146.992 120.13H193.613ZM146.992 138.156C147.396 147.369 149.751 154.045 154.056 158.185C158.362 162.324 164.551 164.393 172.624 164.393C178.409 164.393 183.388 162.991 187.559 160.187C191.73 157.25 194.286 154.179 195.228 150.974H220.456C216.419 163.392 210.23 172.271 201.888 177.612C193.546 182.953 183.455 185.624 171.615 185.624C163.407 185.624 156.007 184.355 149.414 181.818C142.821 179.148 137.238 175.409 132.663 170.602C128.088 165.795 124.523 160.054 121.967 153.378C119.545 146.701 118.334 139.358 118.334 131.346C118.334 123.602 119.612 116.391 122.168 109.715C124.725 103.039 128.358 97.2975 133.067 92.4906C137.776 87.5502 143.36 83.678 149.818 80.874C156.411 78.07 163.676 76.668 171.615 76.668C180.495 76.668 188.231 78.4038 194.824 81.8755C201.417 85.2136 206.799 89.7534 210.97 95.4949C215.275 101.236 218.37 107.779 220.254 115.123C222.137 122.467 222.81 130.144 222.272 138.156H146.992Z" fill="#16191D"/>
<path d="M307.55 79.472H334.796V93.8926H335.401C339.034 87.884 343.743 83.5445 349.529 80.874C355.314 78.07 361.234 76.668 367.289 76.668C374.958 76.668 381.215 77.7362 386.058 79.8726C391.037 81.8755 394.938 84.7462 397.764 88.4849C400.589 92.0901 402.54 96.5631 403.617 101.904C404.828 107.112 405.433 112.92 405.433 119.329V183.02H376.774V124.536C376.774 115.991 375.429 109.648 372.738 105.509C370.047 101.236 365.271 99.1001 358.409 99.1001C350.605 99.1001 344.954 101.437 341.456 106.11C337.957 110.65 336.208 118.194 336.208 128.742V183.02H307.55V79.472Z" fill="#16191D"/>
<path d="M452.614 131.346C452.614 135.485 453.017 139.558 453.825 143.564C454.632 147.436 455.977 150.974 457.861 154.179C459.879 157.25 462.503 159.72 465.732 161.589C468.961 163.459 472.998 164.393 477.841 164.393C482.685 164.393 486.722 163.459 489.951 161.589C493.314 159.72 495.938 157.25 497.822 154.179C499.84 150.974 501.253 147.436 502.06 143.564C502.867 139.558 503.271 135.485 503.271 131.346C503.271 127.207 502.867 123.134 502.06 119.129C501.253 115.123 499.84 111.585 497.822 108.514C495.938 105.442 493.314 102.972 489.951 101.103C486.722 99.1001 482.685 98.0986 477.841 98.0986C472.998 98.0986 468.961 99.1001 465.732 101.103C462.503 102.972 459.879 105.442 457.861 108.514C455.977 111.585 454.632 115.123 453.825 119.129C453.017 123.134 452.614 127.207 452.614 131.346ZM423.955 131.346C423.955 123.068 425.233 115.59 427.79 108.914C430.346 102.104 433.979 96.3628 438.688 91.6895C443.397 86.8826 449.048 83.2107 455.641 80.6737C462.234 78.0033 469.634 76.668 477.841 76.668C486.049 76.668 493.449 78.0033 500.042 80.6737C506.769 83.2107 512.487 86.8826 517.197 91.6895C521.906 96.3628 525.539 102.104 528.095 108.914C530.651 115.59 531.93 123.068 531.93 131.346C531.93 139.625 530.651 147.102 528.095 153.778C525.539 160.454 521.906 166.196 517.197 171.003C512.487 175.676 506.769 179.281 500.042 181.818C493.449 184.355 486.049 185.624 477.841 185.624C469.634 185.624 462.234 184.355 455.641 181.818C449.048 179.281 443.397 175.676 438.688 171.003C433.979 166.196 430.346 160.454 427.79 153.778C425.233 147.102 423.955 139.625 423.955 131.346Z" fill="#16191D"/>
<path d="M550.563 79.472H577.809V98.6995H578.213C579.558 95.4949 581.375 92.5574 583.662 89.8869C585.95 87.0829 588.573 84.7462 591.533 82.8769C594.493 80.874 597.655 79.3385 601.019 78.2703C604.383 77.2021 607.881 76.668 611.514 76.668C613.397 76.668 615.483 77.0018 617.77 77.6694V104.107C616.425 103.84 614.81 103.64 612.926 103.506C611.043 103.239 609.226 103.106 607.477 103.106C602.23 103.106 597.79 103.974 594.157 105.71C590.524 107.445 587.564 109.849 585.277 112.92C583.124 115.857 581.577 119.329 580.635 123.335C579.693 127.34 579.222 131.68 579.222 136.353V183.02H550.563V79.472Z" fill="#16191D"/>
<path d="M629.813 79.472H656.857V93.4921H657.261C661.028 88.1511 665.536 84.0118 670.783 81.0743C676.165 78.1368 682.287 76.668 689.149 76.668C695.742 76.668 701.729 77.9365 707.111 80.4734C712.627 83.0104 716.798 87.4835 719.624 93.8926C722.719 89.3528 726.889 85.3471 732.137 81.8755C737.519 78.4038 743.842 76.668 751.108 76.668C756.625 76.668 761.737 77.3356 766.447 78.6709C771.156 80.0061 775.192 82.1425 778.556 85.08C781.919 88.0176 784.543 91.8898 786.427 96.6966C788.311 101.37 789.252 107.045 789.252 113.721V183.02H760.594V124.336C760.594 120.865 760.459 117.593 760.19 114.522C759.921 111.451 759.181 108.781 757.97 106.511C756.759 104.241 754.943 102.438 752.521 101.103C750.234 99.7677 747.072 99.1001 743.035 99.1001C738.999 99.1001 735.702 99.9012 733.146 101.504C730.724 102.972 728.773 104.975 727.293 107.512C725.948 109.916 725.006 112.72 724.468 115.924C724.064 118.995 723.862 122.133 723.862 125.338V183.02H695.203V124.937C695.203 121.866 695.136 118.862 695.002 115.924C694.867 112.853 694.262 110.049 693.185 107.512C692.243 104.975 690.562 102.972 688.14 101.504C685.852 99.9012 682.421 99.1001 677.847 99.1001C676.501 99.1001 674.685 99.4339 672.398 100.102C670.245 100.636 668.092 101.771 665.939 103.506C663.921 105.109 662.172 107.512 660.692 110.717C659.212 113.788 658.472 117.86 658.472 122.934V183.02H629.813V79.472Z" fill="#16191D"/>
<path d="M810.696 111.318C811.1 104.641 812.781 99.1001 815.742 94.6938C818.702 90.2875 822.469 86.7491 827.044 84.0786C831.618 81.4081 836.731 79.5388 842.382 78.4706C848.167 77.2689 853.953 76.668 859.739 76.668C864.986 76.668 870.301 77.0686 875.683 77.8697C881.064 78.5373 885.975 79.9394 890.416 82.0757C894.856 84.2121 898.488 87.2164 901.314 91.0886C904.139 94.8273 905.552 99.8345 905.552 106.11V159.987C905.552 164.66 905.821 169.133 906.359 173.406C906.898 177.679 907.839 180.884 909.185 183.02H880.123C879.584 181.418 879.114 179.815 878.71 178.213C878.441 176.477 878.239 174.742 878.104 173.006C873.53 177.679 868.148 180.95 861.959 182.82C855.769 184.689 849.446 185.624 842.987 185.624C838.009 185.624 833.367 185.023 829.062 183.821C824.756 182.619 820.989 180.75 817.76 178.213C814.531 175.676 811.974 172.472 810.09 168.599C808.341 164.727 807.467 160.121 807.467 154.78C807.467 148.905 808.476 144.098 810.494 140.359C812.647 136.487 815.338 133.416 818.567 131.146C821.931 128.876 825.698 127.207 829.869 126.139C834.175 124.937 838.48 124.002 842.786 123.335C847.091 122.667 851.329 122.133 855.5 121.732C859.671 121.332 863.371 120.731 866.601 119.93C869.83 119.129 872.386 117.994 874.27 116.525C876.153 114.923 877.028 112.653 876.893 109.715C876.893 106.644 876.355 104.241 875.279 102.505C874.337 100.636 872.992 99.2336 871.242 98.2989C869.628 97.2307 867.677 96.5631 865.39 96.2961C863.237 95.8955 860.882 95.6952 858.326 95.6952C852.675 95.6952 848.235 96.8969 845.006 99.3004C841.776 101.704 839.893 105.71 839.355 111.318H810.696ZM876.893 132.348C875.682 133.416 874.135 134.284 872.252 134.951C870.502 135.485 868.552 135.953 866.399 136.353C864.381 136.754 862.228 137.088 859.94 137.355C857.653 137.622 855.366 137.956 853.078 138.356C850.926 138.757 848.773 139.291 846.62 139.958C844.602 140.626 842.786 141.561 841.171 142.762C839.691 143.831 838.48 145.233 837.538 146.968C836.596 148.704 836.125 150.907 836.125 153.578C836.125 156.115 836.596 158.251 837.538 159.987C838.48 161.723 839.758 163.125 841.373 164.193C842.987 165.128 844.871 165.795 847.024 166.196C849.177 166.597 851.397 166.797 853.684 166.797C859.335 166.797 863.708 165.862 866.802 163.993C869.897 162.123 872.184 159.92 873.664 157.383C875.144 154.713 876.019 152.042 876.288 149.372C876.692 146.701 876.893 144.565 876.893 142.963V132.348Z" fill="#16191D"/>
<path d="M928.604 40.0156H957.263V183.02H928.604V40.0156Z" fill="#16191D"/>
<path d="M981.04 152.176H1012.73V183.02H981.04V152.176Z" fill="#16191D"/>
<path d="M1076.14 40.1536L1111.72 26.0196L1120 50.7542L1083.8 63.2821L1106.5 94.7625L1086.26 110.503L1063.56 77.4162L1042.09 110.503L1021.53 94.7625L1044.23 63.2821L1008.65 50.7542L1016.93 26.0196L1051.6 40.1536V0H1076.14V40.1536Z" fill="#D10011"/>
</svg>
